<?xml version="1.0" standalone="no"?>
<!DOCTYPE svg PUBLIC "-//W3C//DTD SVG 20010904//EN"
 "http://www.w3.org/TR/2001/REC-SVG-20010904/DTD/svg10.dtd">
<svg version="1.0" xmlns="http://www.w3.org/2000/svg"
 width="1920.000000pt" height="1080.000000pt" viewBox="0 0 1920.000000 1080.000000"
 preserveAspectRatio="xMidYMid meet">

<g transform="translate(0.000000,1080.000000) scale(0.100000,-0.100000)"
fill="#000000" stroke="none">
<path d="M5601 10611 c-25 -25 -27 -49 -5 -79 23 -34 83 -27 104 11 13 24 13
30 0 55 -20 36 -70 42 -99 13z"/>
<path d="M9036 10608 c-34 -48 -7 -98 52 -98 33 0 62 29 62 62 0 51 -85 78
-114 36z"/>
<path d="M12557 10612 c-21 -23 -22 -66 -1 -86 20 -20 78 -21 94 0 20 23 16
75 -5 90 -26 20 -69 17 -88 -4z"/>
<path d="M12050 8770 c0 -6 70 -10 190 -10 120 0 190 4 190 10 0 6 -70 10
-190 10 -120 0 -190 -4 -190 -10z"/>
<path d="M6300 8715 c0 -13 28 -15 195 -15 167 0 195 2 195 15 0 13 -28 15
-195 15 -167 0 -195 -2 -195 -15z"/>
<path d="M12050 8685 c0 -12 16 -15 80 -15 64 0 80 3 80 15 0 12 -16 15 -80
15 -64 0 -80 -3 -80 -15z"/>
<path d="M12270 8685 c0 -12 16 -15 80 -15 64 0 80 3 80 15 0 12 -16 15 -80
15 -64 0 -80 -3 -80 -15z"/>
<path d="M6300 8630 c0 -6 33 -10 80 -10 47 0 80 4 80 10 0 6 -33 10 -80 10
-47 0 -80 -4 -80 -10z"/>
<path d="M6530 8630 c0 -6 33 -10 80 -10 47 0 80 4 80 10 0 6 -33 10 -80 10
-47 0 -80 -4 -80 -10z"/>
<path d="M12050 8600 c0 -6 48 -10 125 -10 77 0 125 4 125 10 0 6 -48 10 -125
10 -77 0 -125 -4 -125 -10z"/>
<path d="M6300 8550 c0 -6 48 -10 125 -10 77 0 125 4 125 10 0 6 -48 10 -125
10 -77 0 -125 -4 -125 -10z"/>
<path d="M8373 8110 c-53 -11 -113 -42 -144 -74 -20 -22 -33 -26 -84 -26 -135
0 -278 -64 -385 -171 -70 -70 -108 -135 -160 -274 -41 -111 -59 -136 -142
-202 -128 -103 -167 -144 -198 -207 -51 -106 -56 -202 -16 -351 28 -105 19
-136 -74 -252 -124 -154 -171 -295 -162 -486 l2 -37 733 2 732 3 11 122 c13
133 22 173 23 103 2 -54 24 -166 48 -235 16 -46 18 -48 20 -20 2 17 11 73 20
125 l16 95 13 -65 c7 -36 19 -87 27 -115 l13 -50 172 -3 c95 -1 172 -1 172 0
0 2 -9 28 -21 58 -14 37 -23 88 -26 155 -5 100 -5 100 38 210 48 120 50 142
38 395 -4 86 -2 100 21 145 21 41 30 51 55 53 30 3 30 2 30 -45 0 -36 4 -48
15 -48 11 0 15 12 15 45 0 25 5 48 10 52 23 17 32 5 39 -53 3 -33 15 -81 26
-106 17 -39 23 -44 47 -41 19 2 33 14 48 38 28 48 30 247 3 297 l-18 32 33
-10 c48 -14 50 -13 42 39 -46 324 -211 615 -407 717 -62 33 -84 39 -153 43
-68 4 -85 9 -115 32 -58 46 -142 88 -205 105 -64 16 -88 17 -152 5z m807 -878
l11 -52 42 7 41 6 -17 -26 c-9 -15 -22 -49 -28 -75 l-10 -50 -52 -5 c-29 -3
-53 -4 -55 -2 -1 1 5 19 14 41 12 30 15 64 12 156 -3 115 -3 116 14 85 9 -18
22 -56 28 -85z m149 -124 c8 -27 13 -50 10 -52 -2 -2 -24 -7 -48 -11 l-44 -7
7 37 c18 95 51 109 75 33z m13 -138 c-4 -62 -19 -115 -36 -130 -21 -16 -45 23
-55 90 -13 81 -7 92 48 88 l46 -3 -3 -45z"/>
<path d="M9840 7923 c-93 -32 -165 -106 -193 -198 -9 -28 -89 -714 -183 -1563
l-167 -1514 33 -121 c18 -67 36 -128 40 -135 3 -6 16 84 29 200 107 998 343
3089 351 3113 12 37 74 100 113 114 20 8 862 11 2764 11 l2736 0 43 -25 c62
-36 98 -101 97 -174 -1 -90 -382 -3493 -395 -3526 -14 -37 -63 -91 -103 -113
-28 -16 -127 -17 -1265 -13 -1034 3 -1236 6 -1243 17 -12 21 -207 20 -207 -1
0 -13 -158 -15 -1359 -15 l-1360 0 -41 75 c-23 41 -45 77 -51 80 -10 7 82
-173 141 -275 21 -36 95 -166 165 -290 187 -331 307 -531 326 -541 36 -19 225
-60 449 -98 419 -71 1270 -185 1270 -171 0 4 -32 11 -70 16 l-70 9 59 88 59
88 941 2 941 2 210 -315 c182 -273 207 -315 189 -318 -11 -2 -26 -1 -33 1 -7
3 -75 81 -151 174 -76 92 -143 171 -149 175 -6 4 -187 8 -403 8 l-391 0 59
-107 c67 -123 73 -153 32 -153 -16 0 -42 9 -60 19 -26 17 -33 28 -38 68 -10
81 -25 122 -56 158 -33 38 -158 130 -165 122 -3 -2 32 -35 77 -72 86 -71 111
-110 123 -193 8 -56 -2 -49 -54 40 -24 40 -44 74 -46 76 -7 9 -149 40 -158 35
-6 -4 -50 -38 -98 -75 -47 -37 -89 -68 -92 -68 -3 0 -6 13 -6 28 0 16 -7 37
-15 48 -15 18 -15 16 -9 -26 4 -25 7 -50 8 -57 1 -15 -157 -139 -219 -170 -63
-33 -153 -40 -289 -24 -139 17 -139 17 -122 44 20 31 29 67 18 67 -6 0 -13
-11 -16 -25 -9 -36 -21 -31 -35 15 -6 22 -16 40 -21 40 -6 0 -6 -10 0 -26 6
-14 10 -41 10 -60 l0 -34 -664 7 -663 6 -35 -21 c-35 -22 -38 -22 -642 -22
-402 0 -605 -3 -601 -10 9 -14 6425 -14 6425 0 0 7 -229 10 -667 10 l-668 1
-215 323 -215 323 -134 7 c-176 8 -1912 8 -2155 -1 -144 -5 -185 -9 -173 -18
19 -14 91 -135 84 -142 -3 -3 -33 -2 -67 2 -45 5 -59 10 -51 18 6 6 11 20 11
32 0 18 -2 17 -23 -8 l-22 -28 -70 16 -70 16 -1 50 c0 27 -6 55 -12 61 -9 9
-12 -4 -12 -55 l0 -68 -32 6 c-18 3 -123 19 -233 35 -465 71 -746 129 -774
161 -9 11 -47 72 -85 137 -89 152 -359 620 -375 650 l-12 22 1319 0 1319 0 71
-274 c40 -150 72 -276 72 -280 0 -3 -247 -7 -548 -8 l-548 -3 -41 -27 c-40
-26 -68 -71 -79 -126 l-6 -30 133 -7 c171 -9 2635 -2 2644 7 16 16 -8 81 -43
120 -53 59 -82 68 -220 68 l-119 0 -72 276 c-40 152 -71 277 -69 279 2 2 384
5 848 7 788 3 848 4 885 21 93 42 152 102 181 185 7 22 101 833 209 1803 211
1901 203 1795 155 1889 -30 58 -64 93 -122 125 -44 25 -68 30 -143 35 -49 2
-1325 6 -2835 7 -2471 2 -2749 1 -2790 -14z m5680 -68 c13 -14 21 -25 18 -25
-2 0 -15 11 -28 25 -13 14 -21 25 -18 25 2 0 15 -11 28 -25z m87 -177 c-3 -8
-6 -5 -6 6 -1 11 2 17 5 13 3 -3 4 -12 1 -19z m0 -125 c-3 -10 -5 -2 -5 17 0
19 2 27 5 18 2 -10 2 -26 0 -35z m-10 -90 c-3 -10 -5 -2 -5 17 0 19 2 27 5 18
2 -10 2 -26 0 -35z m-10 -90 c-3 -10 -5 -2 -5 17 0 19 2 27 5 18 2 -10 2 -26
0 -35z m-10 -90 c-3 -10 -5 -2 -5 17 0 19 2 27 5 18 2 -10 2 -26 0 -35z m-10
-90 c-3 -10 -5 -2 -5 17 0 19 2 27 5 18 2 -10 2 -26 0 -35z m-10 -90 c-3 -10
-5 -2 -5 17 0 19 2 27 5 18 2 -10 2 -26 0 -35z m-10 -90 c-3 -10 -5 -2 -5 17
0 19 2 27 5 18 2 -10 2 -26 0 -35z m-10 -90 c-3 -10 -5 -4 -5 12 0 17 2 24 5
18 2 -7 2 -21 0 -30z m-10 -90 c-3 -10 -5 -4 -5 12 0 17 2 24 5 18 2 -7 2 -21
0 -30z m-10 -90 c-3 -10 -5 -4 -5 12 0 17 2 24 5 18 2 -7 2 -21 0 -30z m-10
-90 c-3 -10 -5 -4 -5 12 0 17 2 24 5 18 2 -7 2 -21 0 -30z m-10 -90 c-3 -10
-5 -4 -5 12 0 17 2 24 5 18 2 -7 2 -21 0 -30z m-10 -90 c-3 -10 -5 -4 -5 12 0
17 2 24 5 18 2 -7 2 -21 0 -30z m-10 -90 c-3 -10 -5 -4 -5 12 0 17 2 24 5 18
2 -7 2 -21 0 -30z m-10 -90 c-3 -10 -5 -4 -5 12 0 17 2 24 5 18 2 -7 2 -21 0
-30z m-10 -90 c-3 -10 -5 -4 -5 12 0 17 2 24 5 18 2 -7 2 -21 0 -30z m-10 -90
c-3 -10 -5 -4 -5 12 0 17 2 24 5 18 2 -7 2 -21 0 -30z m-10 -90 c-3 -10 -5 -4
-5 12 0 17 2 24 5 18 2 -7 2 -21 0 -30z m-10 -90 c-3 -10 -5 -4 -5 12 0 17 2
24 5 18 2 -7 2 -21 0 -30z m-10 -90 c-3 -10 -5 -4 -5 12 0 17 2 24 5 18 2 -7
2 -21 0 -30z m-10 -90 c-3 -10 -5 -4 -5 12 0 17 2 24 5 18 2 -7 2 -21 0 -30z
m-10 -90 c-3 -10 -5 -4 -5 12 0 17 2 24 5 18 2 -7 2 -21 0 -30z m-10 -90 c-3
-10 -5 -4 -5 12 0 17 2 24 5 18 2 -7 2 -21 0 -30z m-10 -90 c-3 -10 -5 -4 -5
12 0 17 2 24 5 18 2 -7 2 -21 0 -30z m-10 -90 c-3 -10 -5 -4 -5 12 0 17 2 24
5 18 2 -7 2 -21 0 -30z m-10 -90 c-3 -10 -5 -4 -5 12 0 17 2 24 5 18 2 -7 2
-21 0 -30z m-10 -90 c-3 -10 -5 -4 -5 12 0 17 2 24 5 18 2 -7 2 -21 0 -30z
m-10 -90 c-3 -10 -5 -4 -5 12 0 17 2 24 5 18 2 -7 2 -21 0 -30z m-10 -90 c-3
-10 -5 -4 -5 12 0 17 2 24 5 18 2 -7 2 -21 0 -30z m-10 -90 c-3 -10 -5 -4 -5
12 0 17 2 24 5 18 2 -7 2 -21 0 -30z m-10 -90 c-3 -10 -5 -4 -5 12 0 17 2 24
5 18 2 -7 2 -21 0 -30z m-10 -90 c-3 -10 -5 -4 -5 12 0 17 2 24 5 18 2 -7 2
-21 0 -30z m-10 -100 c-3 -10 -5 -2 -5 17 0 19 2 27 5 18 2 -10 2 -26 0 -35z
m-10 -90 c-3 -10 -5 -2 -5 17 0 19 2 27 5 18 2 -10 2 -26 0 -35z m-10 -90 c-3
-10 -5 -2 -5 17 0 19 2 27 5 18 2 -10 2 -26 0 -35z m-10 -90 c-3 -10 -5 -2 -5
17 0 19 2 27 5 18 2 -10 2 -26 0 -35z m-10 -80 c-3 -10 -5 -4 -5 12 0 17 2 24
5 18 2 -7 2 -21 0 -30z m-10 -90 c-3 -10 -5 -4 -5 12 0 17 2 24 5 18 2 -7 2
-21 0 -30z m-10 -85 c-3 -7 -5 -2 -5 12 0 14 2 19 5 13 2 -7 2 -19 0 -25z
m-17 -76 c0 -5 -7 -17 -15 -28 -14 -18 -14 -17 -4 9 12 27 19 34 19 19z
m-1460 -1386 c0 -2 -7 -7 -16 -10 -8 -3 -12 -2 -9 4 6 10 25 14 25 6z m-55
-32 c-26 -20 -55 -36 -55 -30 0 5 63 46 70 46 3 -1 -4 -8 -15 -16z m-110 -70
c-26 -20 -55 -36 -55 -30 0 5 63 46 70 46 3 -1 -4 -8 -15 -16z m-110 -70 c-26
-20 -55 -36 -55 -30 0 5 63 46 70 46 3 -1 -4 -8 -15 -16z m250 -84 l90 -90
-229 0 c-126 0 -226 3 -223 7 16 16 253 172 262 172 6 1 51 -39 100 -89z
m-345 25 c0 -2 -10 -9 -22 -15 -22 -11 -22 -10 -4 4 21 17 26 19 26 11z m-110
-70 c0 -2 -10 -9 -22 -15 -22 -11 -22 -10 -4 4 21 17 26 19 26 11z"/>
<path d="M9973 7704 c-3 -8 -1 -20 4 -25 5 -5 631 -8 1624 -7 1606 3 1614 3
1614 23 0 20 -8 20 -1618 23 -1462 2 -1618 1 -1624 -14z"/>
<path d="M10312 7358 c-17 -17 -15 -55 4 -62 24 -9 54 12 54 38 0 33 -35 47
-58 24z"/>
<path d="M10447 7349 c-29 -41 6 -71 45 -39 19 15 21 22 12 37 -16 26 -40 27
-57 2z"/>
<path d="M10586 7354 c-20 -19 -20 -38 -1 -54 32 -27 82 23 55 55 -16 19 -35
19 -54 -1z"/>
<path d="M10999 7344 c-11 -14 -10 -18 6 -30 14 -11 61 -14 199 -14 100 0 187
4 194 9 8 5 12 17 10 27 -3 18 -17 19 -199 22 -171 2 -198 0 -210 -14z"/>
<path d="M12684 7158 c-14 -23 29 -38 106 -38 48 0 83 5 95 13 35 26 7 37 -95
37 -64 0 -101 -4 -106 -12z"/>
<path d="M12665 7000 c-4 -6 -1 -17 5 -25 9 -11 36 -15 100 -15 64 0 91 4 100
15 22 27 0 35 -100 35 -58 0 -101 -4 -105 -10z"/>
<path d="M12645 6840 c-4 -6 -1 -17 5 -25 9 -11 35 -15 99 -15 87 0 114 9 104
36 -6 17 -198 20 -208 4z"/>
<path d="M5186 6805 c-4 -11 -20 -15 -56 -15 -27 0 -50 -4 -50 -10 0 -5 25
-10 55 -10 42 0 55 -3 55 -15 0 -8 5 -15 10 -15 6 0 10 7 10 15 0 13 26 15
175 15 149 0 175 -2 175 -15 0 -8 5 -15 10 -15 6 0 10 7 10 15 0 13 26 15 175
15 149 0 175 -2 175 -15 0 -8 5 -15 10 -15 6 0 10 7 10 15 0 13 26 15 170 15
144 0 170 -2 170 -15 0 -8 7 -15 15 -15 8 0 15 7 15 15 0 13 26 15 170 15 144
0 170 -2 170 -15 0 -8 7 -15 15 -15 8 0 15 7 15 15 0 12 13 15 55 15 30 0 55
5 55 10 0 6 -25 10 -55 10 -42 0 -55 3 -55 15 0 8 -7 15 -15 15 -8 0 -15 -7
-15 -15 0 -13 -26 -15 -170 -15 -144 0 -170 2 -170 15 0 8 -7 15 -15 15 -8 0
-15 -7 -15 -15 0 -13 -26 -15 -170 -15 -144 0 -170 2 -170 15 0 8 -4 15 -9 15
-5 0 -11 -7 -15 -15 -4 -13 -34 -15 -176 -15 -144 0 -170 2 -170 15 0 8 -4 15
-9 15 -5 0 -11 -7 -15 -15 -4 -13 -34 -15 -176 -15 -144 0 -170 2 -170 15 0 8
-4 15 -9 15 -5 0 -11 -7 -15 -15z"/>
<path d="M12624 6675 c-11 -29 7 -35 106 -35 99 0 114 6 102 38 -7 19 -201 17
-208 -3z"/>
<path d="M9149 6540 c15 -13 38 -20 64 -20 49 0 42 10 -21 27 -64 17 -71 16
-43 -7z"/>
<path d="M12611 6521 c-8 -5 -11 -16 -8 -25 5 -13 24 -16 106 -16 75 0 100 3
104 14 3 7 0 19 -6 25 -13 13 -175 15 -196 2z"/>
<path d="M10917 6446 c-12 -31 18 -37 184 -34 156 3 164 4 164 23 0 19 -8 20
-171 23 -143 2 -173 0 -177 -12z"/>
<path d="M12564 6188 c-14 -23 29 -38 107 -38 57 0 82 4 93 16 9 8 14 20 11
25 -9 14 -202 11 -211 -3z"/>
<path d="M12543 6024 c-10 -26 16 -34 108 -34 85 0 112 9 102 36 -4 11 -29 14
-104 14 -82 0 -101 -3 -106 -16z"/>
<path d="M12524 5865 c-11 -28 7 -35 100 -35 92 0 120 9 109 36 -8 21 -201 20
-209 -1z"/>
<path d="M12504 5705 c-11 -28 7 -35 100 -35 96 0 126 11 105 37 -17 20 -198
18 -205 -2z"/>
<path d="M10290 5075 c-18 -22 -8 -50 19 -50 32 0 49 28 32 49 -17 20 -35 20
-51 1z"/>
<path d="M12413 4965 c-11 -29 12 -36 108 -33 86 3 94 5 94 23 0 18 -8 20 -98
23 -82 2 -98 0 -104 -13z"/>
<path d="M5178 4956 c-101 -36 -172 -100 -217 -196 -22 -46 -26 -68 -25 -140
0 -72 14 -138 86 -430 47 -190 125 -507 173 -705 161 -667 235 -949 260 -990
32 -54 79 -98 145 -134 l55 -31 -72 0 c-42 0 -73 -4 -73 -10 0 -7 166 -10 479
-10 264 0 482 -3 485 -8 2 -4 -4 -77 -14 -162 -11 -85 -19 -161 -20 -167 0
-10 -100 -13 -465 -13 -407 0 -465 -2 -465 -15 0 -13 52 -15 406 -15 l406 0
-5 -90 c-3 -49 -2 -90 2 -90 8 0 31 113 31 154 0 24 3 26 43 26 l43 0 -12
-107 c-7 -60 -47 -409 -90 -777 l-77 -670 23 -18 c22 -18 41 -19 241 -16 149
2 222 7 230 15 13 13 16 40 120 940 l74 633 132 0 c112 0 133 2 133 15 0 13
-21 15 -130 15 -95 0 -130 3 -130 12 0 16 29 265 36 306 l5 32 712 0 c443 0
729 4 756 11 113 26 220 110 263 207 14 29 23 75 25 122 4 69 -6 116 -126 610
-72 294 -183 749 -247 1010 -79 327 -124 490 -142 523 -33 61 -89 112 -161
146 l-56 26 -1400 2 c-1135 2 -1407 0 -1437 -11z"/>
<path d="M12393 4805 c-11 -29 12 -36 108 -33 86 3 94 5 94 23 0 18 -8 20 -98
23 -82 2 -98 0 -104 -13z"/>
<path d="M12373 4645 c-11 -29 12 -36 108 -33 86 3 94 5 94 23 0 18 -8 20 -98
23 -82 2 -98 0 -104 -13z"/>
<path d="M8434 4512 c4 -25 76 -215 133 -350 8 -18 -64 18 -106 53 -17 15 -31
22 -31 16 0 -20 65 -74 109 -90 l45 -16 93 -205 c124 -272 406 -837 410 -823
2 6 -14 48 -37 93 -145 289 -517 1092 -582 1255 -21 55 -37 85 -34 67z"/>
<path d="M12330 4311 c0 -25 19 -31 101 -31 74 0 109 11 109 35 0 12 -19 15
-105 15 -96 0 -105 -2 -105 -19z"/>
<path d="M12312 4148 c3 -22 8 -23 93 -26 95 -2 122 5 112 32 -5 13 -24 16
-107 16 -99 0 -101 0 -98 -22z"/>
<path d="M9140 2995 c0 -17 105 -190 159 -263 108 -145 244 -263 347 -301 28
-11 87 -24 130 -30 135 -19 415 -41 494 -40 l75 2 -80 8 c-44 5 -168 18 -275
30 -247 26 -315 40 -392 81 -119 63 -308 269 -414 451 -39 68 -44 74 -44 62z"/>
<path d="M9336 1880 c-10 -43 -33 -113 -51 -155 -143 -328 -414 -536 -796
-610 -242 -47 -733 -17 -984 60 -27 8 -53 15 -57 15 -29 0 32 -164 92 -248 66
-94 181 -183 297 -230 l68 -27 1085 -3 c959 -3 1100 -1 1210 13 148 20 427 89
558 138 76 29 92 32 88 19 -3 -10 -12 -66 -21 -127 -10 -60 -39 -243 -66 -405
-27 -162 -49 -299 -49 -303 0 -4 215 -6 477 -5 l478 3 22 185 c37 303 112 973
128 1143 22 239 3 331 -91 436 -48 54 -140 107 -229 132 -58 17 -33 18 778 18
791 1 837 0 837 -16 0 -10 -25 -225 -54 -478 -30 -253 -51 -463 -48 -466 8 -7
342 -63 346 -57 3 3 116 985 116 1006 0 9 135 12 640 12 l639 0 6 -32 c3 -18
37 -305 75 -637 39 -333 71 -606 73 -607 4 -4 361 -64 363 -61 2 2 -132 1163
-149 1299 l-5 38 246 2 c185 2 246 6 250 16 3 9 -627 12 -3125 12 l-3129 0
-18 -80z"/>
</g>
</svg>
